<svg version="1.1" id="Layer_1" xmlns="http://www.w3.org/2000/svg" xmlns:xlink="http://www.w3.org/1999/xlink" x="0px" y="0px"
	 width="100%" viewBox="0 0 949 950" xml:space="preserve">
    <path fill="#221E20" opacity="1.000000" stroke="none"
	d="
M353.458069,951.000000
	C356.456024,950.832642 359.912079,950.665344 363.684052,950.749023
	C360.638702,951.000000 357.277435,951.000000 353.458069,951.000000
z"/>
<path fill="#FFCB05" opacity="1.000000" stroke="none"
	d="
M249.885361,881.042114
	C249.590179,880.597839 249.294998,880.153564 248.983856,879.015259
	C248.703491,874.421570 247.637604,871.191650 242.885345,871.042114
	C242.590164,870.597839 242.294983,870.153564 241.983856,869.015259
	C241.703491,864.421570 240.637604,861.191650 235.885345,861.042114
	C235.590179,860.597839 235.294998,860.153564 234.983856,859.015259
	C234.703491,854.421570 233.637604,851.191650 228.885345,851.042114
	C228.590179,850.597839 228.295013,850.153564 227.983856,849.015259
	C227.703491,844.421570 226.637604,841.191650 221.885345,841.042114
	C221.590164,840.597839 221.294998,840.153564 220.983856,839.015259
	C220.703491,834.421570 219.637604,831.191650 214.885345,831.042114
	C214.590179,830.597839 214.294998,830.153564 213.983856,829.015259
	C213.703491,824.421570 212.637604,821.191650 207.885345,821.042114
	C207.590195,820.597839 207.295013,820.153564 206.983856,819.015259
	C206.703491,814.421570 205.637604,811.191650 200.885345,811.042114
	C195.589249,803.953735 190.293152,796.865417 185.194458,789.190186
	C185.315567,786.666992 185.796799,784.460327 185.022247,782.862488
	C184.048080,780.852844 181.832001,779.489136 180.522873,777.590881
	C171.391663,764.350830 162.448181,750.980835 153.266373,737.776367
	C142.653351,722.513611 131.797577,707.419861 121.155838,692.176880
	C107.002899,671.904663 92.987869,651.536255 78.849136,631.254028
	C70.780716,619.679810 62.574669,608.201538 54.453068,596.664307
	C52.731960,594.219299 51.916496,592.003601 54.298214,589.113525
	C59.037262,583.362976 63.274178,577.201721 67.823074,571.290588
	C72.356392,565.399658 76.946350,559.549194 81.639900,553.785583
	C88.460625,545.409851 95.403862,537.133911 102.280708,528.803772
	C106.846458,523.273132 111.310463,517.656250 115.966438,512.203003
	C119.125313,508.503235 122.484688,504.968842 125.858055,501.460144
	C127.788795,499.451965 129.911545,497.640564 126.954979,494.888855
	C126.968330,494.538361 127.123711,494.270111 128.043823,494.026062
	C135.311417,492.780609 137.436722,490.050110 134.954987,485.888855
	C134.968369,485.538208 135.123825,485.269928 136.057983,485.029175
	C141.534866,485.116760 144.272247,482.754974 145.163513,477.721893
	C146.551361,475.962524 147.775681,474.481262 149.362488,472.982056
	C153.679550,471.706635 156.442978,469.361053 157.167023,464.717468
	C158.889374,462.623291 160.444687,460.811646 162.361176,458.982300
	C167.926514,456.338409 172.281525,452.911774 174.169449,446.713898
	C179.241226,441.103973 184.038498,435.675964 189.131531,430.541321
	C190.193222,429.470978 192.348633,429.485443 193.817062,429.255920
	C193.792862,432.477753 193.832016,435.521088 197.833191,436.000366
	C198.194382,436.498779 198.555557,436.997192 198.681427,438.252838
	C198.167023,443.104889 197.487183,447.375702 202.833191,449.000336
	C203.183075,449.476868 203.532974,449.953430 203.664902,451.044769
	C203.620529,453.739105 203.371826,455.966492 204.039536,457.872955
	C207.223221,466.963104 210.655899,475.966034 214.066788,485.362854
	C218.033020,495.814789 221.958649,505.893860 225.827209,515.994812
	C239.636169,552.050293 253.424271,588.113831 267.225189,624.172424
	C268.474426,627.436340 269.399628,630.903381 271.177765,633.852661
	C272.077942,635.345703 274.610382,636.721069 276.289276,636.596252
	C277.567627,636.501221 279.117798,634.123413 279.723389,632.461182
	C280.439514,630.495361 280.194611,628.196350 280.496582,626.060181
	C282.983337,608.469482 285.508026,590.884216 288.006165,573.295105
	C290.877594,553.078064 293.678009,532.850708 296.617889,512.643616
	C298.289551,501.153625 300.309723,489.713776 301.933472,478.217529
	C303.673584,465.897461 305.035583,453.524231 306.746704,441.199768
	C308.000946,432.166016 309.707642,423.194702 310.938171,414.158173
	C313.289124,396.893524 315.389526,379.594971 317.697296,362.324280
	C319.742065,347.021820 321.829987,331.723297 324.156677,316.462311
	C324.499664,314.212677 325.733856,311.494720 327.458038,310.152954
	C345.549683,296.074127 363.628296,281.963135 382.112488,268.409210
	C396.697540,257.714447 411.727356,247.610626 426.771729,237.561905
	C444.596283,225.656143 462.447937,213.767609 480.664032,202.478653
	C495.776276,193.113235 511.471527,184.692200 526.822510,175.705826
	C530.480103,173.564713 531.434753,175.035095 531.982178,178.442017
	C534.112122,191.696564 536.300171,204.942291 538.565735,218.174301
	C540.378845,228.763229 542.393494,239.317612 544.210083,249.905945
	C545.637024,258.222687 546.737610,266.597504 548.269958,274.893585
	C550.700256,288.051117 553.493591,301.141815 555.897095,314.303925
	C557.656372,323.938232 558.919189,333.662384 560.612976,343.309662
	C563.284485,358.525238 566.231873,373.692474 568.882568,388.911499
	C573.208130,413.746246 577.292542,438.623199 581.667175,463.449097
	C584.198120,477.812103 587.243286,492.084259 589.795654,506.443787
	C593.044373,524.721497 595.922607,543.065735 599.277771,561.322998
	C599.645691,563.325134 602.097229,564.944397 603.582336,566.741211
	C605.276489,564.959778 607.905396,563.439392 608.489441,561.348022
	C610.239929,555.079834 611.117676,548.572815 612.468445,542.187073
	C616.793945,521.737915 621.158875,501.297028 625.548218,480.861420
	C628.683533,466.263916 631.974304,451.699219 635.030212,437.085297
	C638.901489,418.572113 642.474365,399.995941 646.424622,381.500031
	C649.276794,368.145660 652.709229,354.915344 655.568726,341.562439
	C659.461060,323.386932 662.956543,305.126678 666.808044,286.942108
	C669.623596,273.648590 672.884521,260.449219 675.684998,247.152740
	C679.581970,228.649597 683.179138,210.083496 687.014648,191.567123
	C688.897461,182.477402 691.085388,173.451294 693.032776,164.374420
	C695.935669,150.843536 698.758179,137.295364 701.594971,123.750374
	C703.431396,114.981979 705.150513,106.188141 707.080811,97.440689
	C708.158936,92.554817 708.521179,87.640717 714.844482,85.451744
	C733.229004,79.087509 751.202881,71.513153 769.664612,65.400612
	C801.248718,54.943325 832.953186,44.803329 864.854431,35.366070
	C886.344910,29.008591 908.262878,24.097105 929.984009,18.517199
	C933.375671,17.645943 934.348145,18.914612 933.442993,22.127716
	C928.756836,38.762783 924.154236,55.421730 919.393616,72.035408
	C913.670105,92.009323 907.746826,111.926041 902.035522,131.903397
	C892.807190,164.182495 883.755798,196.512253 874.488525,228.780090
	C867.137756,254.374771 859.489990,279.884094 852.127869,305.475555
	C841.697815,341.731384 831.457581,378.041779 821.046448,414.303040
	C810.818665,449.925629 800.440063,485.504822 790.197266,521.123108
	C776.596252,568.419739 763.050781,615.732361 749.504028,663.044678
	C739.468262,698.094482 729.359741,733.124390 719.603027,768.251892
	C718.494385,772.243347 716.556763,774.459167 713.261047,776.416931
	C686.503540,792.312439 659.759460,808.231812 633.109619,824.306763
	C602.903137,842.527039 572.808899,860.933105 542.638245,879.212769
	C538.235962,881.879944 537.187378,881.419006 535.668701,876.398987
	C533.166077,868.126953 530.849792,859.798218 528.311279,851.537537
	C518.626709,820.022522 508.887390,788.524414 499.163361,757.021545
	C493.227051,737.789795 487.218536,718.580139 481.354614,699.326416
	C472.819244,671.301025 464.383118,643.245422 455.908203,615.201599
	C451.722107,601.349731 447.561554,587.490051 443.356781,573.643799
	C439.635468,561.389587 436.010315,549.102112 431.974487,536.951599
	C431.347900,535.065247 428.752716,533.832825 427.067871,532.297974
	C425.745117,533.813354 423.516785,535.181335 423.242218,536.867371
	C420.947510,550.958313 418.961456,565.100647 416.982056,579.241394
	C414.844147,594.514526 412.871887,609.810974 410.718597,625.081909
	C408.910553,637.904419 406.839081,650.690247 405.075409,663.518555
	C402.203857,684.405151 399.555511,705.322388 396.686432,726.209351
	C394.201416,744.299683 391.753998,762.399963 388.869385,780.428528
	C387.386749,789.694885 384.985901,798.814209 382.750000,808.000000
	C382.500000,808.000000 382.000000,808.000000 381.639648,808.017090
	C379.852844,809.022827 378.426422,810.011414 376.639648,811.017090
	C374.852844,812.022827 373.426422,813.011414 371.639648,814.017090
	C369.852844,815.022827 368.426422,816.011414 366.639648,817.017090
	C364.852844,818.022827 363.426422,819.011414 361.639648,820.017090
	C359.852844,821.022827 358.426422,822.011414 356.629700,823.019104
	C349.875610,826.647217 343.394501,830.096924 337.140686,833.918579
	C332.604523,836.690552 328.369385,839.955139 323.823914,843.291870
	C322.098541,844.389099 320.549286,845.194580 318.703888,846.079834
	C317.938507,846.773132 317.469238,847.386536 316.753723,848.212646
	C315.671631,848.616882 314.835815,848.808411 313.703888,849.079834
	C312.938507,849.773132 312.469238,850.386536 311.753723,851.212646
	C310.671631,851.616882 309.835815,851.808411 308.703918,852.079834
	C307.938568,852.773193 307.469299,853.386597 306.753723,854.212646
	C305.671631,854.616821 304.835815,854.808411 303.703888,855.079834
	C302.938507,855.773132 302.469238,856.386536 301.753723,857.212646
	C300.671631,857.616882 299.835815,857.808472 298.703918,858.079895
	C297.938568,858.773193 297.469299,859.386597 296.753723,860.212646
	C295.671631,860.616882 294.835815,860.808472 293.703888,861.079834
	C292.938507,861.773132 292.469238,862.386536 291.753723,863.212646
	C290.671631,863.616882 289.835815,863.808472 288.703888,864.079834
	C287.938507,864.773132 287.469238,865.386536 286.753723,866.212646
	C285.671631,866.616882 284.835815,866.808411 283.703918,867.079834
	C282.938538,867.773193 282.469269,868.386597 281.753723,869.212646
	C280.671631,869.616821 279.835815,869.808411 278.703888,870.079834
	C277.938507,870.773132 277.469238,871.386536 276.753723,872.212646
	C275.671631,872.616821 274.835815,872.808411 273.703918,873.079834
	C272.938538,873.773132 272.469269,874.386597 271.753723,875.212646
	C270.671631,875.616821 269.835815,875.808411 268.673615,876.064697
	C267.564819,877.086365 266.782410,878.043152 265.650513,879.062134
	C262.534027,880.416199 259.767029,881.708130 256.625854,882.979492
	C254.129623,882.320007 252.007492,881.681030 249.885361,881.042114
z"/>
<path fill="#FFCB05" opacity="1.000000" stroke="none"
	d="
M383.000000,808.000000
	C384.985901,798.814209 387.386749,789.694885 388.869385,780.428528
	C391.753998,762.399963 394.201416,744.299683 396.686432,726.209351
	C399.555511,705.322388 402.203857,684.405151 405.075409,663.518555
	C406.839081,650.690247 408.910553,637.904419 410.718597,625.081909
	C412.871887,609.810974 414.844147,594.514526 416.982056,579.241394
	C418.961456,565.100647 420.947510,550.958313 423.242218,536.867371
	C423.516785,535.181335 425.745117,533.813354 427.067871,532.297974
	C428.752716,533.832825 431.347900,535.065247 431.974487,536.951599
	C436.010315,549.102112 439.635468,561.389587 443.356781,573.643799
	C447.561554,587.490051 451.722107,601.349731 455.908203,615.201599
	C464.383118,643.245422 472.819244,671.301025 481.354614,699.326416
	C487.218536,718.580139 493.227051,737.789795 499.163361,757.021545
	C508.887390,788.524414 518.626709,820.022522 528.311279,851.537537
	C530.849792,859.798218 533.166077,868.126953 535.668701,876.398987
	C537.187378,881.419006 538.235962,881.879944 542.638245,879.212769
	C572.808899,860.933105 602.903137,842.527039 633.109619,824.306763
	C659.759460,808.231812 686.503540,792.312439 713.261047,776.416931
	C716.556763,774.459167 718.494385,772.243347 719.603027,768.251892
	C729.359741,733.124390 739.468262,698.094482 749.504028,663.044678
	C763.050781,615.732361 776.596252,568.419739 790.197266,521.123108
	C800.440063,485.504822 810.818665,449.925629 821.046448,414.303040
	C831.457581,378.041779 841.697815,341.731384 852.127869,305.475555
	C859.489990,279.884094 867.137756,254.374771 874.488525,228.780090
	C883.755798,196.512253 892.807190,164.182495 902.035522,131.903397
	C907.746826,111.926041 913.670105,92.009323 919.393616,72.035408
	C924.154236,55.421730 928.756836,38.762783 933.442993,22.127716
	C934.348145,18.914612 933.375671,17.645943 929.984009,18.517199
	C908.262878,24.097105 886.344910,29.008591 864.854431,35.366070
	C832.953186,44.803329 801.248718,54.943325 769.664612,65.400612
	C751.202881,71.513153 733.229004,79.087509 714.844482,85.451744
	C708.521179,87.640717 708.158936,92.554817 707.080811,97.440689
	C705.150513,106.188141 703.431396,114.981979 701.594971,123.750374
	C698.758179,137.295364 695.935669,150.843536 693.032776,164.374420
	C691.085388,173.451294 688.897461,182.477402 687.014648,191.567123
	C683.179138,210.083496 679.581970,228.649597 675.684998,247.152740
	C672.884521,260.449219 669.623596,273.648590 666.808044,286.942108
	C662.956543,305.126678 659.461060,323.386932 655.568726,341.562439
	C652.709229,354.915344 649.276794,368.145660 646.424622,381.500031
	C642.474365,399.995941 638.901489,418.572113 635.030212,437.085297
	C631.974304,451.699219 628.683533,466.263916 625.548218,480.861420
	C621.158875,501.297028 616.793945,521.737915 612.468445,542.187073
	C611.117676,548.572815 610.239929,555.079834 608.489441,561.348022
	C607.905396,563.439392 605.276489,564.959778 603.582336,566.741211
	C602.097229,564.944397 599.645691,563.325134 599.277771,561.322998
	C595.922607,543.065735 593.044373,524.721497 589.795654,506.443787
	C587.243286,492.084259 584.198120,477.812103 581.667175,463.449097
	C577.292542,438.623199 573.208130,413.746246 568.882568,388.911499
	C566.231873,373.692474 563.284485,358.525238 560.612976,343.309662
	C558.919189,333.662384 557.656372,323.938232 555.897095,314.303925
	C553.493591,301.141815 550.700256,288.051117 548.269958,274.893585
	C546.737610,266.597504 545.637024,258.222687 544.210083,249.905945
	C542.393494,239.317612 540.378845,228.763229 538.565735,218.174301
	C536.300171,204.942291 534.112122,191.696564 531.982178,178.442017
	C531.434753,175.035095 530.480103,173.564713 526.822510,175.705826
	C511.471527,184.692200 495.776276,193.113235 480.664032,202.478653
	C462.447937,213.767609 444.596283,225.656143 426.771729,237.561905
	C411.727356,247.610626 396.697540,257.714447 382.112488,268.409210
	C363.628296,281.963135 345.549683,296.074127 327.458038,310.152954
	C325.733856,311.494720 324.499664,314.212677 324.156677,316.462311
	C321.829987,331.723297 319.742065,347.021820 317.697296,362.324280
	C315.389526,379.594971 313.289124,396.893524 310.938171,414.158173
	C309.707642,423.194702 308.000946,432.166016 306.746704,441.199768
	C305.035583,453.524231 303.673584,465.897461 301.933472,478.217529
	C300.309723,489.713776 298.289551,501.153625 296.617889,512.643616
	C293.678009,532.850708 290.877594,553.078064 288.006165,573.295105
	C285.508026,590.884216 282.983337,608.469482 280.496582,626.060181
	C280.194611,628.196350 280.439514,630.495361 279.723389,632.461182
	C279.117798,634.123413 277.567627,636.501221 276.289276,636.596252
	C274.610382,636.721069 272.077942,635.345703 271.177765,633.852661
	C269.399628,630.903381 268.474426,627.436340 267.225189,624.172424
	C253.424271,588.113831 239.636169,552.050293 225.827209,515.994812
	C221.958649,505.893860 218.033020,495.814789 214.478210,485.362366
	C215.919891,484.985382 217.016922,484.971802 218.113953,484.958191
	C218.545349,485.607391 219.401123,486.299774 219.340103,486.898804
	C218.905777,491.163574 222.597092,494.109558 223.047821,497.693665
	C223.932419,504.727692 230.226944,509.676849 229.591415,517.324036
	C229.393921,519.700623 232.854645,522.182068 233.891937,524.901062
	C236.182205,530.904663 237.848526,537.143738 240.051926,543.183716
	C241.820435,548.031494 244.122650,552.682251 245.975464,557.502136
	C248.426010,563.877075 250.654449,570.337158 253.009933,576.748962
	C253.777557,578.838501 254.778503,580.850525 255.429962,582.972534
	C256.173767,585.395203 256.611389,587.910339 257.257996,590.365295
	C257.462982,591.143494 257.828552,591.910522 258.263794,592.591187
	C259.679901,594.805786 262.628082,597.198914 262.337982,599.124329
	C261.539246,604.425903 265.934845,607.126831 267.094147,611.318115
	C268.739105,617.265442 270.681030,623.131836 272.575958,629.007080
	C272.761261,629.581604 273.828217,630.451843 273.937531,630.377563
	C274.702240,629.858154 275.786346,629.205933 275.916382,628.449707
	C277.045349,621.885376 278.061432,615.299377 278.984283,608.702148
	C281.209351,592.795837 283.382294,576.882202 285.545013,560.967285
	C287.387146,547.411255 289.055481,533.830261 291.038483,520.295105
	C293.195374,505.572998 295.738068,490.907410 297.895660,476.185364
	C299.150543,467.623138 299.838531,458.978790 301.033783,450.406586
	C302.786530,437.835724 304.825287,425.305023 306.626587,412.740631
	C307.853333,404.183685 308.855408,395.594788 310.006226,387.026672
	C311.677002,374.587097 313.364105,362.149567 315.096100,349.718384
	C316.354004,340.689728 317.724426,331.676758 318.984924,322.648438
	C319.436981,319.410675 319.069824,315.884918 320.260376,312.974915
	C321.354401,310.300842 323.817963,308.028931 326.070526,306.019745
	C330.827881,301.776459 335.727112,297.672180 340.774963,293.779022
	C350.075867,286.605652 359.502106,279.593781 368.921387,272.575348
	C375.965302,267.326813 382.994415,262.050964 390.190186,257.016022
	C396.191101,252.817123 402.494568,249.052673 408.536530,244.909851
	C415.524994,240.118103 422.347229,235.084625 429.294373,230.231613
	C432.864075,227.737930 436.548492,225.408524 440.929749,222.986267
	C445.957825,222.307297 450.210602,221.610443 451.000732,216.166992
	C458.347565,211.761032 465.757965,207.456940 473.023285,202.920425
	C480.268127,198.396713 487.221802,193.393951 494.565491,189.044205
	C505.075562,182.818970 515.836121,177.017487 526.460449,170.983566
	C528.551208,169.796173 530.509216,168.375153 532.916565,166.809479
	C534.346558,172.122971 536.064392,176.805435 536.800659,181.637466
	C537.922974,189.003265 538.169739,196.499557 539.184875,203.885925
	C539.655884,207.312851 541.431030,210.553421 541.967712,213.979843
	C543.217041,221.956085 543.874207,230.026474 545.177307,237.992310
	C545.789185,241.732559 547.775208,245.249847 548.371338,248.990448
	C549.566284,256.488129 550.062500,264.095673 551.195740,271.605316
	C551.712585,275.030212 553.226746,278.292145 553.989502,281.695038
	C555.425598,288.102448 556.898376,294.519836 557.885681,301.004669
	C558.961121,308.068634 559.121216,315.281677 560.369385,322.307343
	C562.083801,331.957123 564.660706,341.451721 566.460388,351.088928
	C567.814026,358.337372 568.420044,365.722290 569.569031,373.013336
	C570.157288,376.746216 571.413696,380.373718 572.004028,384.106415
	C573.224976,391.826660 573.969543,399.627167 575.348511,407.316040
	C576.595886,414.271637 578.625183,421.084564 579.954712,428.028381
	C582.122070,439.347809 584.014404,450.720154 585.997314,462.074615
	C588.679138,477.430298 591.294983,492.797638 594.024841,508.144745
	C595.175537,514.613831 596.806885,521.006165 597.745544,527.501892
	C598.811035,534.875061 599.074585,542.367493 600.232483,549.722229
	C600.761719,553.083618 602.598511,556.239197 604.207153,560.441162
	C605.553040,554.297302 606.718872,548.707031 608.007629,543.145142
	C611.211182,529.318787 614.656128,515.545288 617.644531,501.673126
	C619.734619,491.971588 621.065979,482.108795 623.031250,472.377594
	C626.109619,457.134491 629.455688,441.945557 632.654663,426.726593
	C637.120789,405.479156 641.509399,384.215363 646.024597,362.978424
	C648.173950,352.868805 650.539001,342.805054 653.331360,332.270874
	C658.698792,328.182953 657.184875,323.513153 655.954956,318.889465
	C656.492615,316.557037 657.091858,314.236786 657.554199,311.889526
	C658.351929,307.839478 659.064392,303.772644 660.327393,299.270386
	C663.517578,296.513458 666.064087,294.181885 661.882996,290.960297
	C662.261658,288.576050 662.640259,286.191833 663.451416,283.370056
	C668.792175,280.042419 667.740417,276.034637 665.954834,271.889252
	C666.244812,270.158936 666.534729,268.428650 667.350342,266.313599
	C671.116455,263.639771 672.455078,261.109619 668.886414,257.957428
	C669.259583,255.900070 669.632751,253.842697 670.452209,251.356735
	C674.694031,248.243393 675.068665,245.606415 672.166992,241.999786
	C672.448547,240.581268 672.730103,239.162766 673.426025,237.286560
	C677.859802,233.166672 678.367432,229.023148 675.167114,225.999756
	C675.722656,223.895615 676.278198,221.791458 677.337952,219.257629
	C680.517639,216.513428 683.064087,214.181854 678.882935,210.960266
	C679.261597,208.576019 679.640259,206.191788 680.458618,203.367844
	C684.694153,200.243271 685.068848,197.606461 682.167053,193.999725
	C682.515198,191.778229 682.863342,189.556717 683.911621,187.079437
	C688.157959,183.573090 688.690247,180.210983 686.166931,177.000595
	C686.447266,175.257477 686.727600,173.514343 687.449219,171.350830
	C691.706482,168.832947 692.312134,166.218674 689.166992,163.000626
	C689.447266,161.257446 689.727539,159.514252 690.424133,157.299957
	C694.859802,153.166672 695.367432,149.023148 692.167114,145.999756
	C692.722595,143.895615 693.278137,141.791489 694.334106,139.259827
	C697.979492,136.580627 699.504150,134.112518 695.886414,130.957458
	C696.197388,129.206635 696.508423,127.455811 697.337891,125.263077
	C702.698669,121.182877 701.184937,116.513130 699.954956,111.889427
	C700.042419,110.368301 700.129944,108.847176 700.914673,107.074860
	C705.158264,103.572678 705.690491,100.210945 703.166870,97.000595
	C703.388794,95.563293 703.610718,94.125992 704.340271,92.255653
	C707.225525,89.779373 709.270203,87.677811 706.102356,84.662964
	C709.110046,83.440445 712.117798,82.217918 715.853088,81.124298
	C723.562805,81.780991 729.099854,78.756569 734.000305,74.167053
	C743.948608,70.312401 753.809570,66.210838 763.864380,62.657570
	C781.519714,56.418362 799.113892,49.906429 817.057251,44.603741
	C849.431885,35.036236 882.023682,26.198347 914.575989,17.241718
	C921.439148,15.353353 928.514160,14.222684 935.512146,12.847641
	C936.855896,12.583601 938.296021,12.809734 940.878906,12.809734
	C935.751160,29.815374 930.827576,45.655643 926.223206,61.588158
	C923.229370,71.947838 920.859009,82.486534 917.934021,92.867462
	C908.345459,126.897537 898.677734,160.905533 888.940186,194.893295
	C885.440247,207.109436 881.623779,219.234573 878.012329,231.419189
	C875.611572,239.519104 873.342224,247.658035 870.927612,255.753723
	C870.748047,256.355560 869.870117,256.749084 868.907715,257.796997
	C867.151367,262.543121 865.713013,266.704865 864.471924,270.924652
	C857.858459,293.410522 851.256409,315.900024 844.810608,338.434082
	C844.433899,339.750885 845.459839,341.468933 845.833069,343.000244
	C842.036438,355.097839 838.090942,367.151550 834.505066,379.311279
	C832.669922,385.534058 831.516907,391.956207 829.945557,398.260864
	C829.758972,399.009216 828.876648,399.584137 827.907715,400.796997
	C826.151306,405.543121 824.713013,409.704895 823.471924,413.924683
	C816.858582,436.410553 810.256409,458.900024 803.810608,481.434082
	C803.433960,482.750885 804.459839,484.468933 804.833069,486.000244
	C800.990295,499.099487 797.033508,512.166687 793.330933,525.305420
	C787.465332,546.119324 781.897400,567.017639 775.959839,587.810608
	C771.618530,603.013672 766.796448,618.078857 762.358765,633.255188
	C759.418884,643.309143 756.801636,653.457214 754.001282,663.552429
	C748.655579,682.823547 743.324280,702.098877 737.906677,721.349854
	C733.662354,736.431641 728.835693,751.367676 725.149231,766.582031
	C722.738770,776.530396 715.380188,780.565430 707.656311,785.128723
	C686.312073,797.738953 665.213501,810.764038 643.951111,823.513855
	C624.218628,835.346069 604.374146,846.991455 584.628479,858.801880
	C570.313110,867.364258 556.038635,875.996826 541.826660,884.729492
	C535.846008,888.404480 534.814453,888.084045 532.776672,881.478210
	C528.111145,866.353943 523.268127,851.284485 518.610229,836.157959
	C507.487854,800.037842 496.417572,763.901794 485.352661,727.764038
	C479.063354,707.223328 472.848267,686.659790 466.556671,666.119751
	C463.106537,654.856262 459.525970,643.632812 456.078918,632.368469
	C452.451172,620.513489 448.902679,608.634216 445.337280,596.760254
	C439.868866,578.548462 434.417755,560.331543 428.941345,542.122131
	C428.821503,541.723755 428.485443,541.390320 427.470642,539.820923
	C426.807281,542.986206 426.232117,545.033081 425.971130,547.119263
	C425.406982,551.628418 424.036285,555.911438 423.714050,560.581726
	C422.944000,571.741028 420.675720,582.794983 419.064148,593.898926
	C417.997040,601.251587 417.157562,608.640076 415.946320,615.967896
	C415.292725,619.922241 413.673157,623.735168 413.199677,627.696838
	C412.476868,633.744629 412.697327,639.907715 411.926697,645.946533
	C410.629333,656.113098 408.816437,666.212769 407.328308,676.356445
	C406.736542,680.390137 406.535095,684.480225 405.977661,688.520020
	C404.465240,699.480713 402.849854,710.427185 401.290497,721.381470
	C400.509583,726.867493 399.918793,732.386353 398.944061,737.836975
	C398.293823,741.473083 396.762146,744.967651 396.276031,748.612427
	C395.773834,752.377747 396.446136,756.301208 395.929138,760.062683
	C394.225647,772.456665 392.216370,784.808716 389.860840,797.683105
	C388.597870,801.737305 387.798584,805.285156 386.999298,808.833008
	C386.999298,808.833008 386.567780,808.984863 386.033905,809.003052
	C385.295441,809.028320 385.090820,809.035461 384.886169,809.042664
	C384.886169,809.042664 384.463531,809.032410 384.110565,808.859131
	C383.505066,808.457214 383.252533,808.228577 383.000000,808.000000
z"/>
<path fill="#FFCB05" opacity="1.000000" stroke="none"
	d="
M126.599167,494.941956
	C129.911545,497.640564 127.788795,499.451965 125.858055,501.460144
	C122.484688,504.968842 119.125313,508.503235 115.966438,512.203003
	C111.310463,517.656250 106.846458,523.273132 102.280708,528.803772
	C95.403862,537.133911 88.460625,545.409851 81.639900,553.785583
	C76.946350,559.549194 72.356392,565.399658 67.823074,571.290588
	C63.274178,577.201721 59.037262,583.362976 54.298214,589.113525
	C51.916496,592.003601 52.731960,594.219299 54.453068,596.664307
	C62.574669,608.201538 70.780716,619.679810 78.849136,631.254028
	C92.987869,651.536255 107.002899,671.904663 121.155838,692.176880
	C131.797577,707.419861 142.653351,722.513611 153.266373,737.776367
	C162.448181,750.980835 171.391663,764.350830 180.522873,777.590881
	C181.832001,779.489136 184.048080,780.852844 185.022247,782.862488
	C185.796799,784.460327 185.315567,786.666992 185.142059,788.825439
	C179.542084,781.216858 174.204681,773.377441 168.835968,765.559570
	C166.374451,761.975098 163.861038,758.426086 161.354263,754.872986
	C156.529434,748.034180 151.733932,741.174255 146.847183,734.379883
	C143.168625,729.265381 139.282455,724.299377 135.637619,719.161560
	C128.563477,709.189880 121.622971,699.123413 114.572891,689.134460
	C107.968910,679.777466 101.173340,670.553528 94.687386,661.116211
	C88.735283,652.455688 83.284363,643.447693 77.247841,634.848938
	C70.068535,624.622375 62.498520,614.670105 55.101082,604.596619
	C53.275379,602.110352 51.360825,599.681396 49.671421,597.105225
	C47.884773,594.380798 46.895187,591.764526 49.640980,588.686401
	C54.020554,583.776733 58.084469,578.572998 62.094234,573.349609
	C65.676575,568.682983 68.826530,563.679260 72.488098,559.079773
	C77.769394,552.445618 83.394325,546.086304 88.773415,539.528381
	C94.150551,532.972717 99.351349,526.272400 104.728157,519.716492
	C111.172981,511.858337 117.710365,504.075867 124.250435,496.296600
	C124.739212,495.715179 125.571007,495.422150 126.599167,494.941956
z"/>
<path fill="#FFCB05" opacity="1.000000" stroke="none"
	d="
M304.000000,855.000000
	C304.835815,854.808411 305.671631,854.616821 307.049835,854.132812
	C308.061493,853.226868 308.530762,852.613464 309.000000,852.000000
	C309.835815,851.808411 310.671631,851.616882 312.049805,851.132812
	C313.061432,850.226807 313.530701,849.613403 314.000000,849.000000
	C314.835815,848.808411 315.671631,848.616882 317.049835,848.132812
	C318.061493,847.226868 318.530762,846.613464 319.000000,846.000000
	C320.549286,845.194580 322.098541,844.389099 324.174652,843.229248
	C326.872589,841.712158 329.120056,840.671143 331.201447,839.365479
	C339.828278,833.953796 348.404907,828.462219 357.334259,822.943115
	C359.112366,821.924133 360.556183,820.962097 362.334259,819.943115
	C364.112335,818.924072 365.556152,817.962036 367.334259,816.943115
	C369.112366,815.924133 370.556183,814.962097 372.334259,813.943115
	C374.112335,812.924133 375.556183,811.962036 377.339600,810.943115
	C378.786133,810.590820 379.893066,810.295410 381.354187,810.000000
	C382.416656,810.000000 383.125000,810.000000 383.833313,810.000000
	C378.800507,813.345581 373.878906,816.874573 368.716125,820.005920
	C342.449860,835.936829 316.164459,851.837341 289.791687,867.591064
	C280.131592,873.361511 270.236115,878.741089 260.392426,884.198730
	C258.392609,885.307495 256.143250,885.966248 254.181854,886.229980
	C255.236481,884.751648 256.118225,883.875793 257.000000,883.000000
	C259.767029,881.708130 262.534027,880.416199 265.976929,878.997437
	C267.435181,877.913635 268.217590,876.956848 269.000000,876.000000
	C269.835815,875.808411 270.671631,875.616821 272.049805,875.132751
	C273.061462,874.226868 273.530731,873.613403 274.000000,873.000000
	C274.835815,872.808411 275.671631,872.616821 277.049805,872.132812
	C278.061462,871.226868 278.530731,870.613403 279.000000,870.000000
	C279.835815,869.808411 280.671631,869.616821 282.049805,869.132812
	C283.061462,868.226868 283.530731,867.613403 284.000000,867.000000
	C284.835815,866.808411 285.671631,866.616882 287.049805,866.132812
	C288.061432,865.226807 288.530701,864.613403 289.000000,864.000000
	C289.835815,863.808472 290.671631,863.616882 292.049805,863.132812
	C293.061462,862.226868 293.530731,861.613464 294.000000,861.000000
	C294.835815,860.808472 295.671631,860.616882 297.049805,860.132812
	C298.061432,859.226807 298.530701,858.613403 299.000000,858.000000
	C299.835815,857.808472 300.671631,857.616882 302.049805,857.132812
	C303.061432,856.226807 303.530701,855.613403 304.000000,855.000000
z"/>
<path fill="#FFCB05" opacity="1.000000" stroke="none"
	d="
M804.911865,485.619812
	C804.459839,484.468933 803.433960,482.750885 803.810608,481.434082
	C810.256409,458.900024 816.858582,436.410553 823.471924,413.924683
	C824.713013,409.704895 826.151306,405.543121 827.803955,401.154053
	C826.841370,407.072083 825.901550,413.281006 824.245911,419.292725
	C818.632202,439.676178 812.778625,459.993652 806.970520,480.323120
	C806.487854,482.012543 805.658813,483.602997 804.911865,485.619812
z"/>
<path fill="#FFCB05" opacity="1.000000" stroke="none"
	d="
M845.911926,342.619843
	C845.459839,341.468933 844.433899,339.750885 844.810608,338.434082
	C851.256409,315.900024 857.858459,293.410522 864.471924,270.924652
	C865.713013,266.704865 867.151367,262.543121 868.803955,258.154053
	C867.841309,264.072083 866.901428,270.280945 865.245789,276.292725
	C859.632141,296.676147 853.778625,316.993652 847.970581,337.323120
	C847.487915,339.012573 846.658875,340.603027 845.911926,342.619843
z"/>
<path fill="#FFCB05" opacity="1.000000" stroke="none"
	d="
M218.063049,484.576599
	C217.016922,484.971802 215.919891,484.985382 214.411423,484.999512
	C210.655899,475.966034 207.223221,466.963104 204.039536,457.872955
	C203.371826,455.966492 203.620529,453.739105 203.640045,451.343567
	C205.281677,453.539917 207.042969,455.925568 208.120987,458.587921
	C211.554733,467.068268 214.734344,475.651489 218.063049,484.576599
z"/>
<path fill="#FFCB05" opacity="1.000000" stroke="none"
	d="
M194.000000,429.000000
	C192.348633,429.485443 190.193222,429.470978 189.131531,430.541321
	C184.038498,435.675964 179.241226,441.103973 173.843918,446.660583
	C172.528061,446.581177 171.707184,446.268982 170.886322,445.956787
	C178.756073,438.500610 186.625809,431.044434 194.648361,423.443451
	C195.237823,424.668335 196.104843,426.470001 196.548370,428.635925
	C195.416611,429.000122 194.708298,429.000061 194.000000,429.000000
z"/>
<path fill="#FFCB05" opacity="1.000000" stroke="none"
	d="
M170.576859,446.084778
	C171.707184,446.268982 172.528061,446.581177 173.674469,446.946686
	C172.281525,452.911774 167.926514,456.338409 162.506424,458.656799
	C162.512634,457.194855 162.734756,456.040710 162.956879,454.886536
	C165.393723,451.995300 167.830566,449.104034 170.576859,446.084778
z"/>
<path fill="#FFCB05" opacity="1.000000" stroke="none"
	d="
M733.613708,74.094063
	C729.099854,78.756569 723.562805,81.780991 716.236938,81.102173
	C721.671143,78.641106 727.449097,76.331085 733.613708,74.094063
z"/>
<path fill="#FFCB05" opacity="1.000000" stroke="none"
	d="
M157.000000,465.000000
	C156.442978,469.361053 153.679550,471.706635 149.360748,472.592834
	C148.983276,471.443207 148.970047,470.664825 148.956818,469.886475
	C150.414612,467.976532 151.872421,466.066620 153.885101,464.253601
	C155.293289,464.567017 156.146652,464.783508 157.000000,465.000000
z"/>
<path fill="#FFCB05" opacity="1.000000" stroke="none"
	d="
M145.000000,478.000000
	C144.272247,482.754974 141.534866,485.116760 136.290131,484.966064
	C137.678101,482.377838 139.470551,479.797974 141.878632,477.220642
	C143.329514,477.482086 144.164764,477.741028 145.000000,478.000000
z"/>
<path fill="#FFCB05" opacity="1.000000" stroke="none"
	d="
M134.601242,485.941803
	C137.436722,490.050110 135.311417,492.780609 128.275909,493.962982
	C130.006042,491.303589 132.126770,488.649170 134.601242,485.941803
z"/>
<path fill="#FFCB05" opacity="1.000000" stroke="none"
	d="
M202.910492,448.635132
	C197.487183,447.375702 198.167023,443.104889 198.628998,438.560486
	C200.170868,439.925079 201.833984,441.596039 202.779984,443.604736
	C203.391953,444.904205 202.954803,446.697754 202.910492,448.635132
z"/>
<path fill="#FFCB05" opacity="1.000000" stroke="none"
	d="
M699.602661,112.090881
	C701.184937,116.513130 702.698669,121.182877 697.511719,124.910721
	C697.861511,120.764297 698.555908,116.528320 699.602661,112.090881
z"/>
<path fill="#FFCB05" opacity="1.000000" stroke="none"
	d="
M655.602661,319.090881
	C657.184875,323.513153 658.698792,328.182953 653.511719,331.910767
	C653.861511,327.764282 654.555969,323.528320 655.602661,319.090881
z"/>
<path fill="#FFCB05" opacity="1.000000" stroke="none"
	d="
M157.167023,464.717468
	C156.146652,464.783508 155.293289,464.567017 154.195999,464.121124
	C156.746811,460.978455 159.541565,458.065186 162.646591,455.019226
	C162.734756,456.040710 162.512634,457.194855 162.145264,458.674500
	C160.444687,460.811646 158.889374,462.623291 157.167023,464.717468
z"/>
<path fill="#FFCB05" opacity="1.000000" stroke="none"
	d="
M228.936157,851.412231
	C233.637604,851.191650 234.703491,854.421570 234.962936,858.718018
	C232.967636,856.670593 230.977295,854.226440 228.936157,851.412231
z"/>
<path fill="#FFCB05" opacity="1.000000" stroke="none"
	d="
M242.936142,871.412231
	C247.637604,871.191650 248.703491,874.421570 248.962921,878.718018
	C246.967606,876.670593 244.977280,874.226440 242.936142,871.412231
z"/>
<path fill="#FFCB05" opacity="1.000000" stroke="none"
	d="
M692.093628,146.408752
	C695.367432,149.023148 694.859802,153.166672 690.503601,156.914551
	C690.784546,153.606079 691.402283,150.211899 692.093628,146.408752
z"/>
<path fill="#FFCB05" opacity="1.000000" stroke="none"
	d="
M200.936157,811.412231
	C205.637604,811.191650 206.703491,814.421570 206.962936,818.718018
	C204.967636,816.670593 202.977295,814.226440 200.936157,811.412231
z"/>
<path fill="#FFCB05" opacity="1.000000" stroke="none"
	d="
M235.936142,861.412231
	C240.637604,861.191650 241.703491,864.421570 241.962921,868.718018
	C239.967606,866.670593 237.977280,864.226440 235.936142,861.412231
z"/>
<path fill="#FFCB05" opacity="1.000000" stroke="none"
	d="
M193.817062,429.255920
	C194.708298,429.000061 195.416611,429.000122 196.479065,429.000427
	C197.217880,431.096222 197.602554,433.191742 197.910217,435.643799
	C193.832016,435.521088 193.792862,432.477753 193.817062,429.255920
z"/>
<path fill="#FFCB05" opacity="1.000000" stroke="none"
	d="
M221.936142,841.412231
	C226.637604,841.191650 227.703491,844.421570 227.962921,848.718018
	C225.967606,846.670593 223.977280,844.226440 221.936142,841.412231
z"/>
<path fill="#FFCB05" opacity="1.000000" stroke="none"
	d="
M214.936157,831.412231
	C219.637604,831.191650 220.703491,834.421570 220.962936,838.718018
	C218.967636,836.670593 216.977295,834.226440 214.936157,831.412231
z"/>
<path fill="#FFCB05" opacity="1.000000" stroke="none"
	d="
M675.093628,226.408752
	C678.367432,229.023148 677.859802,233.166672 673.503601,236.914551
	C673.784546,233.606079 674.402344,230.211914 675.093628,226.408752
z"/>
<path fill="#FFCB05" opacity="1.000000" stroke="none"
	d="
M207.936142,821.412231
	C212.637604,821.191650 213.703491,824.421570 213.962921,828.718018
	C211.967621,826.670593 209.977280,824.226440 207.936142,821.412231
z"/>
<path fill="#FFCB05" opacity="1.000000" stroke="none"
	d="
M665.604187,272.088440
	C667.740417,276.034637 668.792175,280.042419 663.525269,282.966431
	C663.862244,279.429443 664.557922,275.858521 665.604187,272.088440
z"/>
<path fill="#FFCB05" opacity="1.000000" stroke="none"
	d="
M685.988220,177.358368
	C688.690247,180.210983 688.157959,183.573090 684.248596,186.890839
	C684.526794,183.877411 685.168152,180.796783 685.988220,177.358368
z"/>
<path fill="#FFCB05" opacity="1.000000" stroke="none"
	d="
M450.652039,216.191406
	C450.210602,221.610443 445.957825,222.307297 441.282166,222.962708
	C444.025055,220.710464 447.164185,218.463150 450.652039,216.191406
z"/>
<path fill="#FFCB05" opacity="1.000000" stroke="none"
	d="
M702.988281,97.358368
	C705.690491,100.210945 705.158264,103.572678 701.248657,106.890869
	C701.526794,103.877426 702.168213,100.796791 702.988281,97.358368
z"/>
<path fill="#FFCB05" opacity="1.000000" stroke="none"
	d="
M387.371246,808.784912
	C387.798584,805.285156 388.597870,801.737305 389.757019,798.074585
	C389.325623,801.552063 388.534424,805.144470 387.371246,808.784912
z"/>
<path fill="#FFCB05" opacity="1.000000" stroke="none"
	d="
M672.086914,242.388245
	C675.068665,245.606415 674.694031,248.243393 670.532715,250.964294
	C670.780212,248.259201 671.393555,245.517960 672.086914,242.388245
z"/>
<path fill="#FFCB05" opacity="1.000000" stroke="none"
	d="
M668.546936,258.149475
	C672.455078,261.109619 671.116455,263.639771 667.521484,265.964600
	C667.513794,263.447418 667.860596,260.894501 668.546936,258.149475
z"/>
<path fill="#FFCB05" opacity="1.000000" stroke="none"
	d="
M688.996155,163.348969
	C692.312134,166.218674 691.706482,168.832947 687.528687,170.965439
	C687.719666,168.566055 688.272522,166.131668 688.996155,163.348969
z"/>
<path fill="#FFCB05" opacity="1.000000" stroke="none"
	d="
M682.093140,194.394333
	C685.068848,197.606461 684.694153,200.243271 680.532532,202.964264
	C680.784180,200.263245 681.401733,197.526093 682.093140,194.394333
z"/>
<path fill="#FFCB05" opacity="1.000000" stroke="none"
	d="
M678.543945,211.152466
	C683.064087,214.181854 680.517639,216.513428 677.504639,218.914108
	C677.512939,216.448395 677.858887,213.896530 678.543945,211.152466
z"/>
<path fill="#FFCB05" opacity="1.000000" stroke="none"
	d="
M661.543945,291.152466
	C666.064087,294.181885 663.517578,296.513458 660.504639,298.914124
	C660.513000,296.448395 660.858948,293.896545 661.543945,291.152466
z"/>
<path fill="#FFCB05" opacity="1.000000" stroke="none"
	d="
M695.546936,131.149506
	C699.504150,134.112518 697.979492,136.580627 694.500732,138.916290
	C694.513855,136.447388 694.860657,133.894470 695.546936,131.149506
z"/>
<path fill="#FFCB05" opacity="1.000000" stroke="none"
	d="
M145.163513,477.721863
	C144.164764,477.741028 143.329514,477.482086 142.193573,477.087097
	C144.041534,474.683929 146.190170,472.416779 148.647812,470.018066
	C148.970047,470.664825 148.983276,471.443207 148.998260,472.610779
	C147.775681,474.481262 146.551361,475.962524 145.163513,477.721863
z"/>
<path fill="#FFCB05" opacity="1.000000" stroke="none"
	d="
M256.625854,882.979492
	C256.118225,883.875793 255.236481,884.751648 254.152863,885.867188
	C252.629684,884.662842 251.308395,883.218872 249.936234,881.408508
	C252.007492,881.681030 254.129623,882.320007 256.625854,882.979492
z"/>
<path fill="#FFCB05" opacity="1.000000" stroke="none"
	d="
M705.804565,84.847473
	C709.270203,87.677811 707.225525,89.779373 704.507446,91.911438
	C704.613647,89.677521 705.060242,87.354759 705.804565,84.847473
z"/>
<path fill="#FFCB05" opacity="1.000000" stroke="none"
	d="
M383.909485,809.782471
	C383.125000,810.000000 382.416656,810.000000 381.475037,809.747925
	C381.494507,808.997253 381.747253,808.498596 382.000000,808.000000
	C382.000000,808.000000 382.500000,808.000000 382.750000,808.000000
	C383.252533,808.228577 383.505066,808.457214 383.902649,808.897095
	C384.047668,809.108459 383.985657,809.565063 383.909485,809.782471
z"/>
<path fill="#FFCB05" opacity="1.000000" stroke="none"
	d="
M384.980713,809.299194
	C385.090820,809.035461 385.295441,809.028320 385.807007,809.031860
	C385.767731,809.213562 385.421478,809.384705 384.980713,809.299194
z"/>
<path fill="#FFCB05" opacity="1.000000" stroke="none"
	d="
M356.629700,823.019104
	C348.404907,828.462219 339.828278,833.953796 331.201447,839.365479
	C329.120056,840.671143 326.872589,841.712158 324.350739,842.937378
	C328.369385,839.955139 332.604523,836.690552 337.140686,833.918579
	C343.394501,830.096924 349.875610,826.647217 356.629700,823.019104
z"/>
<path fill="#FFCB05" opacity="1.000000" stroke="none"
	d="
M366.639648,817.017090
	C365.556152,817.962036 364.112335,818.924072 362.334259,819.943115
	C363.426422,819.011414 364.852844,818.022827 366.639648,817.017090
z"/>
<path fill="#FFCB05" opacity="1.000000" stroke="none"
	d="
M381.639648,808.017090
	C381.747253,808.498596 381.494507,808.997253 381.120880,809.747925
	C379.893066,810.295410 378.786133,810.590820 377.339600,810.943115
	C378.426422,810.011414 379.852844,809.022827 381.639648,808.017090
z"/>
<path fill="#FFCB05" opacity="1.000000" stroke="none"
	d="
M376.639648,811.017090
	C375.556183,811.962036 374.112335,812.924133 372.334259,813.943115
	C373.426422,813.011414 374.852844,812.022827 376.639648,811.017090
z"/>
<path fill="#FFCB05" opacity="1.000000" stroke="none"
	d="
M371.639648,814.017090
	C370.556183,814.962097 369.112366,815.924133 367.334259,816.943115
	C368.426422,816.011414 369.852844,815.022827 371.639648,814.017090
z"/>
<path fill="#FFCB05" opacity="1.000000" stroke="none"
	d="
M361.639648,820.017090
	C360.556183,820.962097 359.112366,821.924133 357.334259,822.943115
	C358.426422,822.011414 359.852844,821.022827 361.639648,820.017090
z"/>
<path fill="#FFCB05" opacity="1.000000" stroke="none"
	d="
M268.673615,876.064758
	C268.217590,876.956848 267.435181,877.913635 266.326385,878.935242
	C266.782410,878.043152 267.564819,877.086365 268.673615,876.064758
z"/>
<path fill="#FFCB05" opacity="1.000000" stroke="none"
	d="
M313.703857,849.079834
	C313.530701,849.613403 313.061432,850.226807 312.296082,850.920166
	C312.469238,850.386536 312.938507,849.773132 313.703857,849.079834
z"/>
<path fill="#FFCB05" opacity="1.000000" stroke="none"
	d="
M308.703918,852.079834
	C308.530762,852.613464 308.061493,853.226868 307.296143,853.920166
	C307.469299,853.386597 307.938568,852.773193 308.703918,852.079834
z"/>
<path fill="#FFCB05" opacity="1.000000" stroke="none"
	d="
M303.703857,855.079834
	C303.530701,855.613403 303.061432,856.226807 302.296082,856.920166
	C302.469238,856.386536 302.938507,855.773132 303.703857,855.079834
z"/>
<path fill="#FFCB05" opacity="1.000000" stroke="none"
	d="
M298.703918,858.079834
	C298.530701,858.613403 298.061432,859.226807 297.296082,859.920166
	C297.469299,859.386597 297.938568,858.773193 298.703918,858.079834
z"/>
<path fill="#FFCB05" opacity="1.000000" stroke="none"
	d="
M318.703918,846.079834
	C318.530762,846.613464 318.061493,847.226868 317.296082,847.920166
	C317.469238,847.386536 317.938507,846.773132 318.703918,846.079834
z"/>
<path fill="#FFCB05" opacity="1.000000" stroke="none"
	d="
M293.703888,861.079834
	C293.530731,861.613464 293.061462,862.226868 292.296082,862.920166
	C292.469238,862.386536 292.938507,861.773132 293.703888,861.079834
z"/>
<path fill="#FFCB05" opacity="1.000000" stroke="none"
	d="
M288.703857,864.079834
	C288.530701,864.613403 288.061432,865.226807 287.296082,865.920166
	C287.469238,865.386536 287.938507,864.773132 288.703857,864.079834
z"/>
<path fill="#FFCB05" opacity="1.000000" stroke="none"
	d="
M283.703918,867.079834
	C283.530731,867.613403 283.061462,868.226868 282.296082,868.920166
	C282.469269,868.386597 282.938538,867.773193 283.703918,867.079834
z"/>
<path fill="#FFCB05" opacity="1.000000" stroke="none"
	d="
M278.703888,870.079834
	C278.530731,870.613403 278.061462,871.226868 277.296082,871.920166
	C277.469238,871.386536 277.938507,870.773132 278.703888,870.079834
z"/>
<path fill="#FFCB05" opacity="1.000000" stroke="none"
	d="
M273.703918,873.079834
	C273.530731,873.613403 273.061462,874.226868 272.296082,874.920166
	C272.469269,874.386597 272.938538,873.773132 273.703918,873.079834
z"/>
</svg>
